<?xml version="1.0" ?><svg enable-background="new 0 0 512 512" id="Layer_1" version="1.1" viewBox="0 0 512 512" xml:space="preserve" xmlns="http://www.w3.org/2000/svg" xmlns:xlink="http://www.w3.org/1999/xlink"><g><g><linearGradient gradientUnits="userSpaceOnUse" id="SVGID_1_" x1="0.0000038" x2="512" y1="256" y2="256"><stop offset="0" style="stop-color:#A364AB"/><stop offset="1" style="stop-color:#8C3D96"/></linearGradient><circle cx="256" cy="256" fill="url(#SVGID_1_)" r="256"/><linearGradient gradientUnits="userSpaceOnUse" id="SVGID_2_" x1="42.6666679" x2="469.3333435" y1="256.0005188" y2="256.0005188"><stop offset="0" style="stop-color:#8C3D96"/><stop offset="1" style="stop-color:#A364AB"/></linearGradient><path d="M256,469.3338623c-117.6314697,0-213.3333282-95.7018738-213.3333282-213.3333435    c0-117.6309204,95.7018585-213.333313,213.3333282-213.333313c117.6357422,0,213.3333435,95.7024002,213.3333435,213.333313    C469.3333435,373.6319885,373.6357422,469.3338623,256,469.3338623z" fill="url(#SVGID_2_)"/></g><path d="M342.0517273,227.2480011L329.8426514,144H198.1578674l-12.2090607,83.2480011   c-11.0223999,48.4517365,24.2394562,94.6677399,73.0506744,97.6426544V374h-51.2890778v10h112.5802765v-10h-51.2911987v-49.1093445   C317.8106689,321.915741,353.0736084,275.7013245,342.0517273,227.2480011z M263.9995728,302.6480103   c-17.6369019,0-34.059845-7.9056091-45.0559998-21.6842651c-5.9786682-7.4949341-10.0266724-16.3962708-11.7041016-25.7424164   l9.8437347-1.7674561c1.3845215,7.7146759,4.7312012,15.0730743,9.6778564,21.2693329   c9.0891724,11.391449,22.6607971,17.9248047,37.2385101,17.9248047c5.4223022,0,10.7348328-0.8986816,15.7982788-2.670929   l3.3003845,9.4437256C276.9702454,301.5589294,270.5450745,302.6480103,263.9995728,302.6480103z" opacity="0.3"/><path d="M334.0517273,219.2480011L321.8426514,136H190.1578674l-12.2090607,83.2480011   c-11.0223999,48.4517365,24.2394562,94.6677399,73.0506592,97.6426544V366h-51.2890625v10h112.5802765v-10h-51.2911987v-49.1093445   C309.8106689,313.915741,345.0736084,267.7013245,334.0517273,219.2480011z M255.9995728,294.6480103   c-17.6369019,0-34.059845-7.9056091-45.0559998-21.6842651c-5.9786682-7.4949341-10.0266724-16.3962708-11.7041016-25.7424164   l9.8437347-1.7674561c1.3845215,7.7146606,4.7312012,15.0730743,9.6778564,21.2693329   c9.0891724,11.391449,22.6607971,17.9248047,37.2385101,17.9248047c5.4223022,0,10.7348328-0.8986816,15.7982788-2.670929   l3.3003845,9.4437256C268.9702454,293.5589294,262.5450745,294.6480103,255.9995728,294.6480103z" fill="#FFFFFF"/></g></svg>