<?xml version="1.0" encoding="UTF-8" standalone="no"?>
<svg
   xmlns:dc="http://purl.org/dc/elements/1.1/"
   xmlns:cc="http://creativecommons.org/ns#"
   xmlns:rdf="http://www.w3.org/1999/02/22-rdf-syntax-ns#"
   xmlns:svg="http://www.w3.org/2000/svg"
   xmlns="http://www.w3.org/2000/svg"
   xmlns:xlink="http://www.w3.org/1999/xlink"
   xmlns:sodipodi="http://sodipodi.sourceforge.net/DTD/sodipodi-0.dtd"
   xmlns:inkscape="http://www.inkscape.org/namespaces/inkscape"
   enable-background="new 0 0 512 512"
   id="Layer_1"
   version="1.1"
   viewBox="0 0 512 512"
   xml:space="preserve"
   sodipodi:docname="bar.svg"
   inkscape:version="0.92.2 (5c3e80d, 2017-08-06)"><metadata
     id="metadata29"><rdf:RDF><cc:Work
         rdf:about=""><dc:format>image/svg+xml</dc:format><dc:type
           rdf:resource="http://purl.org/dc/dcmitype/StillImage" /></cc:Work></rdf:RDF></metadata><defs
     id="defs27"><linearGradient
       inkscape:collect="always"
       id="linearGradient6023"><stop
         style="stop-color:#d40000;stop-opacity:1;"
         offset="0"
         id="stop6019" /><stop
         style="stop-color:#d40000;stop-opacity:0;"
         offset="1"
         id="stop6021" /></linearGradient><linearGradient
       inkscape:collect="always"
       id="linearGradient4549"><stop
         style="stop-color:#ff6600;stop-opacity:1;"
         offset="0"
         id="stop4545" /><stop
         style="stop-color:#ff6600;stop-opacity:0;"
         offset="1"
         id="stop4547" /></linearGradient><linearGradient
       inkscape:collect="always"
       xlink:href="#linearGradient4549"
       id="linearGradient4551"
       x1="0"
       y1="256"
       x2="512"
       y2="256"
       gradientUnits="userSpaceOnUse" /><linearGradient
       inkscape:collect="always"
       xlink:href="#linearGradient6023"
       id="linearGradient6025"
       x1="42.666672"
       y1="256.00053"
       x2="469.33334"
       y2="256.00053"
       gradientUnits="userSpaceOnUse" /></defs><sodipodi:namedview
     pagecolor="#ffffff"
     bordercolor="#666666"
     borderopacity="1"
     objecttolerance="10"
     gridtolerance="10"
     guidetolerance="10"
     inkscape:pageopacity="0"
     inkscape:pageshadow="2"
     inkscape:window-width="1920"
     inkscape:window-height="1138"
     id="namedview25"
     showgrid="false"
     inkscape:zoom="0.4609375"
     inkscape:cx="611.92269"
     inkscape:cy="278.28143"
     inkscape:window-x="-8"
     inkscape:window-y="-8"
     inkscape:window-maximized="1"
     inkscape:current-layer="Layer_1" /><g
     id="g16"
     inkscape:export-xdpi="299.39999"
     inkscape:export-ydpi="299.39999"><linearGradient
       y2="256"
       y1="256"
       x2="512"
       x1="3.8000001e-006"
       id="SVGID_1_"
       gradientUnits="userSpaceOnUse"
       spreadMethod="pad"><stop
         id="stop2"
         style="stop-color:#A364AB"
         offset="0" /><stop
         id="stop4"
         style="stop-color:#8C3D96"
         offset="1" /></linearGradient><circle
       style="fill:url(#linearGradient4551);fill-opacity:1"
       id="circle7"
       r="256"
       cy="256"
       cx="256" /><linearGradient
       y2="256.00052"
       y1="256.00052"
       x2="469.33334"
       x1="42.666668"
       id="SVGID_2_"
       gradientUnits="userSpaceOnUse"><stop
         id="stop9"
         style="stop-color:#8C3D96"
         offset="0" /><stop
         id="stop11"
         style="stop-color:#A364AB"
         offset="1" /></linearGradient><path
       inkscape:connector-curvature="0"
       style="fill:url(#linearGradient6025);fill-opacity:1"
       id="path14"
       d="M 256,469.33386 C 138.36853,469.33386 42.666672,373.63199 42.666672,256.00052 42.666672,138.3696 138.36853,42.667206 256,42.667206 c 117.63574,0 213.33334,95.702404 213.33334,213.333314 0,117.63147 -95.6976,213.33334 -213.33334,213.33334 z" /></g><path
     style="opacity:0.3"
     inkscape:connector-curvature="0"
     id="path18"
     d="M 342.05173,227.248 329.84265,144 H 198.15787 l -12.20906,83.248 c -11.0224,48.45174 24.23945,94.66774 73.05067,97.64266 V 374 H 207.7104 v 10 h 112.58028 v -10 h -51.2912 v -49.10934 c 48.81119,-2.97492 84.07413,-49.18934 73.05225,-97.64266 z m -78.05216,75.40001 c -17.6369,0 -34.05984,-7.90561 -45.056,-21.68426 -5.97867,-7.49494 -10.02667,-16.39628 -11.7041,-25.74242 l 9.84374,-1.76746 c 1.38452,7.71468 4.7312,15.07308 9.67785,21.26934 9.08917,11.39144 22.6608,17.9248 37.23851,17.9248 5.4223,0 10.73484,-0.89868 15.79828,-2.67093 l 3.30039,9.44373 c -6.12799,2.13812 -12.55317,3.2272 -19.09867,3.2272 z"
     inkscape:export-xdpi="299.39999"
     inkscape:export-ydpi="299.39999" /><path
     style="fill:#000000"
     inkscape:connector-curvature="0"
     id="path20"
     d="M 334.05173,219.248 321.84265,136 H 190.15787 l -12.20906,83.248 c -11.0224,48.45174 24.23945,94.66774 73.05066,97.64266 V 366 H 199.7104 v 10 h 112.58028 v -10 h -51.2912 v -49.10934 c 48.81119,-2.97492 84.07413,-49.18934 73.05225,-97.64266 z m -78.05216,75.40001 c -17.6369,0 -34.05984,-7.90561 -45.056,-21.68426 -5.97867,-7.49494 -10.02667,-16.39628 -11.7041,-25.74242 l 9.84374,-1.76746 c 1.38452,7.71466 4.7312,15.07308 9.67785,21.26934 9.08917,11.39144 22.6608,17.9248 37.23851,17.9248 5.4223,0 10.73484,-0.89868 15.79828,-2.67093 l 3.30039,9.44373 c -6.12799,2.13812 -12.55317,3.2272 -19.09867,3.2272 z"
     inkscape:export-xdpi="299.39999"
     inkscape:export-ydpi="299.39999" /></svg>